<mxfile host="Electron" agent="Mozilla/5.0 (Windows NT 10.0; Win64; x64) AppleWebKit/537.36 (KHTML, like Gecko) draw.io/28.0.6 Chrome/138.0.7204.100 Electron/37.2.3 Safari/537.36" version="28.0.6">
  <diagram name="Page-1" id="8gm_NqYqxbBN7W3WQUjC">
    <mxGraphModel dx="1226" dy="736" grid="1" gridSize="10" guides="1" tooltips="1" connect="1" arrows="1" fold="1" page="1" pageScale="1" pageWidth="3300" pageHeight="2339" math="0" shadow="0">
      <root>
        <mxCell id="0" />
        <mxCell id="1" parent="0" />
        <mxCell id="F349iUXyBMpqa09dAMpT-1" value="l" style="rounded=1;whiteSpace=wrap;html=1;fillColor=none;dashed=1;movable=0;resizable=0;rotatable=0;deletable=0;editable=0;locked=1;connectable=0;" parent="1" vertex="1">
          <mxGeometry x="220" y="320" width="130" height="350" as="geometry" />
        </mxCell>
        <mxCell id="F349iUXyBMpqa09dAMpT-2" value="&lt;font style=&quot;font-size: 13px;&quot;&gt;&lt;b style=&quot;&quot;&gt;Sources&lt;/b&gt;&lt;/font&gt;" style="rounded=1;whiteSpace=wrap;html=1;fillColor=default;strokeColor=none;movable=0;resizable=0;rotatable=0;deletable=0;editable=0;locked=1;connectable=0;" parent="1" vertex="1">
          <mxGeometry x="250" y="310" width="70" height="15" as="geometry" />
        </mxCell>
        <mxCell id="F349iUXyBMpqa09dAMpT-31" style="edgeStyle=orthogonalEdgeStyle;rounded=0;orthogonalLoop=1;jettySize=auto;html=1;entryX=0;entryY=0.5;entryDx=0;entryDy=0;" parent="1" source="F349iUXyBMpqa09dAMpT-3" target="F349iUXyBMpqa09dAMpT-18" edge="1">
          <mxGeometry relative="1" as="geometry">
            <Array as="points">
              <mxPoint x="339" y="558" />
            </Array>
          </mxGeometry>
        </mxCell>
        <mxCell id="F349iUXyBMpqa09dAMpT-3" value="" style="image;aspect=fixed;html=1;points=[];align=center;fontSize=12;image=img/lib/azure2/general/Folder_Blank.svg;movable=0;resizable=0;rotatable=0;deletable=0;editable=0;locked=1;connectable=0;" parent="1" vertex="1">
          <mxGeometry x="260" y="540" width="36.96" height="30" as="geometry" />
        </mxCell>
        <mxCell id="F349iUXyBMpqa09dAMpT-33" style="edgeStyle=orthogonalEdgeStyle;rounded=0;orthogonalLoop=1;jettySize=auto;html=1;exitX=0.9;exitY=0.1;exitDx=0;exitDy=0;exitPerimeter=0;entryX=0;entryY=0.5;entryDx=0;entryDy=0;" parent="1" source="F349iUXyBMpqa09dAMpT-4" target="F349iUXyBMpqa09dAMpT-17" edge="1">
          <mxGeometry relative="1" as="geometry" />
        </mxCell>
        <mxCell id="F349iUXyBMpqa09dAMpT-34" style="edgeStyle=orthogonalEdgeStyle;rounded=0;orthogonalLoop=1;jettySize=auto;html=1;exitX=0.96;exitY=0.96;exitDx=0;exitDy=0;exitPerimeter=0;entryX=0;entryY=0.5;entryDx=0;entryDy=0;" parent="1" source="F349iUXyBMpqa09dAMpT-4" target="F349iUXyBMpqa09dAMpT-19" edge="1">
          <mxGeometry relative="1" as="geometry" />
        </mxCell>
        <mxCell id="F349iUXyBMpqa09dAMpT-4" value="" style="verticalLabelPosition=bottom;html=1;verticalAlign=top;align=center;strokeColor=none;fillColor=#00BEF2;shape=mxgraph.azure.file_2;pointerEvents=1;movable=0;resizable=0;rotatable=0;deletable=0;editable=0;locked=1;connectable=0;" parent="1" vertex="1">
          <mxGeometry x="280" y="550" width="20" height="20" as="geometry" />
        </mxCell>
        <mxCell id="F349iUXyBMpqa09dAMpT-5" value="&lt;b&gt;&lt;font style=&quot;font-size: 9px;&quot;&gt;ERP&lt;/font&gt;&lt;/b&gt;" style="text;html=1;align=center;verticalAlign=middle;whiteSpace=wrap;rounded=0;movable=0;resizable=0;rotatable=0;deletable=0;editable=0;locked=1;connectable=0;" parent="1" vertex="1">
          <mxGeometry x="262.72" y="565" width="31.52" height="20" as="geometry" />
        </mxCell>
        <mxCell id="F349iUXyBMpqa09dAMpT-24" style="edgeStyle=orthogonalEdgeStyle;rounded=0;orthogonalLoop=1;jettySize=auto;html=1;" parent="1" source="F349iUXyBMpqa09dAMpT-7" target="F349iUXyBMpqa09dAMpT-15" edge="1">
          <mxGeometry relative="1" as="geometry">
            <Array as="points">
              <mxPoint x="340" y="410" />
              <mxPoint x="340" y="410" />
            </Array>
          </mxGeometry>
        </mxCell>
        <mxCell id="F349iUXyBMpqa09dAMpT-7" value="" style="image;aspect=fixed;html=1;points=[];align=center;fontSize=12;image=img/lib/azure2/general/Folder_Blank.svg;movable=0;resizable=0;rotatable=0;deletable=0;editable=0;locked=1;connectable=0;" parent="1" vertex="1">
          <mxGeometry x="260" y="390" width="36.96" height="30" as="geometry" />
        </mxCell>
        <mxCell id="F349iUXyBMpqa09dAMpT-35" style="edgeStyle=orthogonalEdgeStyle;rounded=0;orthogonalLoop=1;jettySize=auto;html=1;exitX=0.9;exitY=0.1;exitDx=0;exitDy=0;exitPerimeter=0;entryX=0;entryY=0.5;entryDx=0;entryDy=0;" parent="1" source="F349iUXyBMpqa09dAMpT-8" target="F349iUXyBMpqa09dAMpT-14" edge="1">
          <mxGeometry relative="1" as="geometry" />
        </mxCell>
        <mxCell id="F349iUXyBMpqa09dAMpT-36" style="edgeStyle=orthogonalEdgeStyle;rounded=0;orthogonalLoop=1;jettySize=auto;html=1;exitX=0.96;exitY=0.96;exitDx=0;exitDy=0;exitPerimeter=0;entryX=0;entryY=0.5;entryDx=0;entryDy=0;" parent="1" source="F349iUXyBMpqa09dAMpT-8" target="F349iUXyBMpqa09dAMpT-16" edge="1">
          <mxGeometry relative="1" as="geometry" />
        </mxCell>
        <mxCell id="F349iUXyBMpqa09dAMpT-8" value="" style="verticalLabelPosition=bottom;html=1;verticalAlign=top;align=center;strokeColor=none;fillColor=#00BEF2;shape=mxgraph.azure.file_2;pointerEvents=1;movable=0;resizable=0;rotatable=0;deletable=0;editable=0;locked=1;connectable=0;" parent="1" vertex="1">
          <mxGeometry x="280" y="400" width="20" height="20" as="geometry" />
        </mxCell>
        <mxCell id="F349iUXyBMpqa09dAMpT-9" value="&lt;b&gt;&lt;font style=&quot;font-size: 9px;&quot;&gt;CRM&lt;/font&gt;&lt;/b&gt;" style="text;html=1;align=center;verticalAlign=middle;whiteSpace=wrap;rounded=0;movable=0;resizable=0;rotatable=0;deletable=0;editable=0;locked=1;connectable=0;" parent="1" vertex="1">
          <mxGeometry x="262.72" y="415" width="31.52" height="20" as="geometry" />
        </mxCell>
        <mxCell id="F349iUXyBMpqa09dAMpT-11" value="" style="rounded=1;whiteSpace=wrap;html=1;fillColor=none;movable=1;resizable=1;rotatable=1;deletable=1;editable=1;locked=0;connectable=1;strokeColor=#FFB570;dashed=1;" parent="1" vertex="1">
          <mxGeometry x="400" y="320" width="130" height="350" as="geometry" />
        </mxCell>
        <mxCell id="F349iUXyBMpqa09dAMpT-13" value="&lt;b&gt;&lt;font style=&quot;font-size: 10px;&quot;&gt;BRONZE LAYER&lt;/font&gt;&lt;/b&gt;" style="rounded=1;whiteSpace=wrap;html=1;fillColor=#FFB570;strokeColor=#FFB570;" parent="1" vertex="1">
          <mxGeometry x="420" y="310" width="90" height="20" as="geometry" />
        </mxCell>
        <mxCell id="eSRFqqp2QMfvsFI-cl8B-9" style="edgeStyle=orthogonalEdgeStyle;rounded=0;orthogonalLoop=1;jettySize=auto;html=1;exitX=1;exitY=0.5;exitDx=0;exitDy=0;" parent="1" source="F349iUXyBMpqa09dAMpT-14" target="eSRFqqp2QMfvsFI-cl8B-3" edge="1">
          <mxGeometry relative="1" as="geometry" />
        </mxCell>
        <mxCell id="F349iUXyBMpqa09dAMpT-14" value="&lt;span style=&quot;font-size: 10px;&quot;&gt;crm_sales_details&lt;/span&gt;" style="rounded=1;whiteSpace=wrap;html=1;fillColor=#FFB570;strokeColor=#FFB570;" parent="1" vertex="1">
          <mxGeometry x="410" y="355" width="110" height="25" as="geometry" />
        </mxCell>
        <mxCell id="eSRFqqp2QMfvsFI-cl8B-10" style="edgeStyle=orthogonalEdgeStyle;rounded=0;orthogonalLoop=1;jettySize=auto;html=1;exitX=1;exitY=0.5;exitDx=0;exitDy=0;" parent="1" source="F349iUXyBMpqa09dAMpT-15" target="eSRFqqp2QMfvsFI-cl8B-4" edge="1">
          <mxGeometry relative="1" as="geometry" />
        </mxCell>
        <mxCell id="F349iUXyBMpqa09dAMpT-15" value="&lt;font style=&quot;font-size: 10px;&quot;&gt;crm_cust_info&lt;/font&gt;" style="rounded=1;whiteSpace=wrap;html=1;fillColor=#FFB570;strokeColor=#FFB570;" parent="1" vertex="1">
          <mxGeometry x="410" y="395" width="110" height="25" as="geometry" />
        </mxCell>
        <mxCell id="F349iUXyBMpqa09dAMpT-29" style="edgeStyle=orthogonalEdgeStyle;rounded=0;orthogonalLoop=1;jettySize=auto;html=1;movable=0;resizable=0;rotatable=0;deletable=0;editable=0;locked=1;connectable=0;" parent="1" edge="1">
          <mxGeometry relative="1" as="geometry">
            <mxPoint x="340" y="410" as="targetPoint" />
            <mxPoint x="340" y="410" as="sourcePoint" />
          </mxGeometry>
        </mxCell>
        <mxCell id="F349iUXyBMpqa09dAMpT-30" style="edgeStyle=orthogonalEdgeStyle;rounded=0;orthogonalLoop=1;jettySize=auto;html=1;movable=0;resizable=0;rotatable=0;deletable=0;editable=0;locked=1;connectable=0;" parent="1" edge="1">
          <mxGeometry relative="1" as="geometry">
            <mxPoint x="340" y="410" as="targetPoint" />
            <mxPoint x="340" y="410" as="sourcePoint" />
          </mxGeometry>
        </mxCell>
        <mxCell id="eSRFqqp2QMfvsFI-cl8B-11" style="edgeStyle=orthogonalEdgeStyle;rounded=0;orthogonalLoop=1;jettySize=auto;html=1;exitX=1;exitY=0.5;exitDx=0;exitDy=0;entryX=0;entryY=0.5;entryDx=0;entryDy=0;" parent="1" source="F349iUXyBMpqa09dAMpT-16" target="eSRFqqp2QMfvsFI-cl8B-5" edge="1">
          <mxGeometry relative="1" as="geometry" />
        </mxCell>
        <mxCell id="F349iUXyBMpqa09dAMpT-16" value="&lt;font style=&quot;font-size: 10px;&quot;&gt;crm_prd_info&lt;/font&gt;" style="rounded=1;whiteSpace=wrap;html=1;fillColor=#FFB570;strokeColor=#FFB570;" parent="1" vertex="1">
          <mxGeometry x="410" y="435" width="110" height="25" as="geometry" />
        </mxCell>
        <mxCell id="eSRFqqp2QMfvsFI-cl8B-12" style="edgeStyle=orthogonalEdgeStyle;rounded=0;orthogonalLoop=1;jettySize=auto;html=1;exitX=1;exitY=0.5;exitDx=0;exitDy=0;entryX=0;entryY=0.5;entryDx=0;entryDy=0;" parent="1" source="F349iUXyBMpqa09dAMpT-17" target="eSRFqqp2QMfvsFI-cl8B-6" edge="1">
          <mxGeometry relative="1" as="geometry" />
        </mxCell>
        <mxCell id="F349iUXyBMpqa09dAMpT-17" value="&lt;font style=&quot;font-size: 10px;&quot;&gt;erp_cust_az12&lt;/font&gt;" style="rounded=1;whiteSpace=wrap;html=1;fillColor=#FFB570;strokeColor=#FFB570;" parent="1" vertex="1">
          <mxGeometry x="410" y="505" width="110" height="25" as="geometry" />
        </mxCell>
        <mxCell id="eSRFqqp2QMfvsFI-cl8B-13" style="edgeStyle=orthogonalEdgeStyle;rounded=0;orthogonalLoop=1;jettySize=auto;html=1;exitX=1;exitY=0.5;exitDx=0;exitDy=0;" parent="1" source="F349iUXyBMpqa09dAMpT-18" target="eSRFqqp2QMfvsFI-cl8B-7" edge="1">
          <mxGeometry relative="1" as="geometry" />
        </mxCell>
        <mxCell id="F349iUXyBMpqa09dAMpT-18" value="&lt;font style=&quot;font-size: 10px;&quot;&gt;erp_ loc_a101&lt;/font&gt;" style="rounded=1;whiteSpace=wrap;html=1;fillColor=#FFB570;strokeColor=#FFB570;" parent="1" vertex="1">
          <mxGeometry x="410" y="545" width="110" height="25" as="geometry" />
        </mxCell>
        <mxCell id="eSRFqqp2QMfvsFI-cl8B-14" style="edgeStyle=orthogonalEdgeStyle;rounded=0;orthogonalLoop=1;jettySize=auto;html=1;exitX=1;exitY=0.5;exitDx=0;exitDy=0;" parent="1" source="F349iUXyBMpqa09dAMpT-19" target="eSRFqqp2QMfvsFI-cl8B-8" edge="1">
          <mxGeometry relative="1" as="geometry" />
        </mxCell>
        <mxCell id="F349iUXyBMpqa09dAMpT-19" value="&lt;font style=&quot;font-size: 10px;&quot;&gt;erp_px_cat_g1_v2&lt;/font&gt;" style="rounded=1;whiteSpace=wrap;html=1;fillColor=#FFB570;strokeColor=#FFB570;" parent="1" vertex="1">
          <mxGeometry x="410" y="585" width="110" height="25" as="geometry" />
        </mxCell>
        <mxCell id="F349iUXyBMpqa09dAMpT-37" value="&lt;b&gt;&lt;font style=&quot;font-size: 15px;&quot;&gt;Data Flow Diagram&lt;/font&gt;&lt;/b&gt;" style="text;html=1;align=center;verticalAlign=middle;whiteSpace=wrap;rounded=0;" parent="1" vertex="1">
          <mxGeometry x="230" y="250" width="140" height="30" as="geometry" />
        </mxCell>
        <mxCell id="eSRFqqp2QMfvsFI-cl8B-1" value="" style="rounded=1;whiteSpace=wrap;html=1;fillColor=none;movable=1;resizable=1;rotatable=1;deletable=1;editable=1;locked=0;connectable=1;strokeColor=#666666;dashed=1;fontColor=#333333;" parent="1" vertex="1">
          <mxGeometry x="580" y="320" width="130" height="350" as="geometry" />
        </mxCell>
        <mxCell id="eSRFqqp2QMfvsFI-cl8B-2" value="&lt;b&gt;&lt;font style=&quot;font-size: 10px;&quot;&gt;SILVER&amp;nbsp; LAYER&lt;/font&gt;&lt;/b&gt;" style="rounded=1;whiteSpace=wrap;html=1;fillColor=#f5f5f5;strokeColor=#666666;fontColor=#333333;" parent="1" vertex="1">
          <mxGeometry x="600" y="310" width="90" height="20" as="geometry" />
        </mxCell>
        <mxCell id="_ni2BkANyReUADWvfRKk-15" style="edgeStyle=orthogonalEdgeStyle;rounded=0;orthogonalLoop=1;jettySize=auto;html=1;exitX=1;exitY=0.5;exitDx=0;exitDy=0;" edge="1" parent="1" source="eSRFqqp2QMfvsFI-cl8B-3" target="_ni2BkANyReUADWvfRKk-1">
          <mxGeometry relative="1" as="geometry" />
        </mxCell>
        <mxCell id="eSRFqqp2QMfvsFI-cl8B-3" value="&lt;span style=&quot;font-size: 10px;&quot;&gt;crm_sales_details&lt;/span&gt;" style="rounded=1;whiteSpace=wrap;html=1;fillColor=#f5f5f5;strokeColor=#666666;fontColor=#333333;" parent="1" vertex="1">
          <mxGeometry x="590" y="355" width="110" height="25" as="geometry" />
        </mxCell>
        <mxCell id="_ni2BkANyReUADWvfRKk-9" style="edgeStyle=orthogonalEdgeStyle;rounded=0;orthogonalLoop=1;jettySize=auto;html=1;exitX=1;exitY=0.5;exitDx=0;exitDy=0;entryX=0;entryY=0.25;entryDx=0;entryDy=0;" edge="1" parent="1" source="eSRFqqp2QMfvsFI-cl8B-4" target="_ni2BkANyReUADWvfRKk-6">
          <mxGeometry relative="1" as="geometry" />
        </mxCell>
        <mxCell id="eSRFqqp2QMfvsFI-cl8B-4" value="&lt;font style=&quot;font-size: 10px;&quot;&gt;crm_cust_info&lt;/font&gt;" style="rounded=1;whiteSpace=wrap;html=1;fillColor=#f5f5f5;strokeColor=#666666;fontColor=#333333;" parent="1" vertex="1">
          <mxGeometry x="590" y="395" width="110" height="25" as="geometry" />
        </mxCell>
        <mxCell id="_ni2BkANyReUADWvfRKk-14" style="edgeStyle=orthogonalEdgeStyle;rounded=0;orthogonalLoop=1;jettySize=auto;html=1;exitX=1;exitY=1;exitDx=0;exitDy=0;entryX=0;entryY=0.25;entryDx=0;entryDy=0;" edge="1" parent="1" source="eSRFqqp2QMfvsFI-cl8B-5" target="_ni2BkANyReUADWvfRKk-8">
          <mxGeometry relative="1" as="geometry">
            <Array as="points">
              <mxPoint x="750" y="460" />
              <mxPoint x="750" y="511" />
            </Array>
          </mxGeometry>
        </mxCell>
        <mxCell id="eSRFqqp2QMfvsFI-cl8B-5" value="&lt;font style=&quot;font-size: 10px;&quot;&gt;crm_prd_info&lt;/font&gt;" style="rounded=1;whiteSpace=wrap;html=1;fillColor=#f5f5f5;strokeColor=#666666;fontColor=#333333;" parent="1" vertex="1">
          <mxGeometry x="590" y="435" width="110" height="25" as="geometry" />
        </mxCell>
        <mxCell id="_ni2BkANyReUADWvfRKk-10" style="edgeStyle=orthogonalEdgeStyle;rounded=0;orthogonalLoop=1;jettySize=auto;html=1;exitX=1;exitY=0.5;exitDx=0;exitDy=0;entryX=0;entryY=0.5;entryDx=0;entryDy=0;" edge="1" parent="1" source="eSRFqqp2QMfvsFI-cl8B-6" target="_ni2BkANyReUADWvfRKk-6">
          <mxGeometry relative="1" as="geometry" />
        </mxCell>
        <mxCell id="eSRFqqp2QMfvsFI-cl8B-6" value="&lt;font style=&quot;font-size: 10px;&quot;&gt;erp_cust_az12&lt;/font&gt;" style="rounded=1;whiteSpace=wrap;html=1;fillColor=#f5f5f5;strokeColor=#666666;fontColor=#333333;" parent="1" vertex="1">
          <mxGeometry x="590" y="505" width="110" height="25" as="geometry" />
        </mxCell>
        <mxCell id="_ni2BkANyReUADWvfRKk-11" style="edgeStyle=orthogonalEdgeStyle;rounded=0;orthogonalLoop=1;jettySize=auto;html=1;exitX=1;exitY=0.5;exitDx=0;exitDy=0;entryX=0;entryY=0.5;entryDx=0;entryDy=0;" edge="1" parent="1" source="eSRFqqp2QMfvsFI-cl8B-7" target="_ni2BkANyReUADWvfRKk-6">
          <mxGeometry relative="1" as="geometry" />
        </mxCell>
        <mxCell id="eSRFqqp2QMfvsFI-cl8B-7" value="&lt;font style=&quot;font-size: 10px;&quot;&gt;erp_ loc_a101&lt;/font&gt;" style="rounded=1;whiteSpace=wrap;html=1;fillColor=#f5f5f5;strokeColor=#666666;fontColor=#333333;" parent="1" vertex="1">
          <mxGeometry x="590" y="545" width="110" height="25" as="geometry" />
        </mxCell>
        <mxCell id="_ni2BkANyReUADWvfRKk-12" style="edgeStyle=orthogonalEdgeStyle;rounded=0;orthogonalLoop=1;jettySize=auto;html=1;exitX=1;exitY=0.75;exitDx=0;exitDy=0;entryX=0;entryY=0.75;entryDx=0;entryDy=0;" edge="1" parent="1" source="eSRFqqp2QMfvsFI-cl8B-8" target="_ni2BkANyReUADWvfRKk-8">
          <mxGeometry relative="1" as="geometry" />
        </mxCell>
        <mxCell id="eSRFqqp2QMfvsFI-cl8B-8" value="&lt;font style=&quot;font-size: 10px;&quot;&gt;erp_px_cat_g1_v2&lt;/font&gt;" style="rounded=1;whiteSpace=wrap;html=1;fillColor=#f5f5f5;strokeColor=#666666;fontColor=#333333;" parent="1" vertex="1">
          <mxGeometry x="590" y="585" width="110" height="25" as="geometry" />
        </mxCell>
        <mxCell id="_ni2BkANyReUADWvfRKk-1" value="" style="rounded=1;whiteSpace=wrap;html=1;fillColor=none;movable=1;resizable=1;rotatable=1;deletable=1;editable=1;locked=0;connectable=1;strokeColor=#d6b656;dashed=1;" vertex="1" parent="1">
          <mxGeometry x="930" y="320" width="130" height="350" as="geometry" />
        </mxCell>
        <mxCell id="_ni2BkANyReUADWvfRKk-2" value="&lt;b&gt;&lt;font style=&quot;font-size: 10px;&quot;&gt;GOLD&amp;nbsp; LAYER&lt;/font&gt;&lt;/b&gt;" style="rounded=1;whiteSpace=wrap;html=1;fillColor=#fff2cc;strokeColor=#d6b656;" vertex="1" parent="1">
          <mxGeometry x="950" y="310" width="90" height="20" as="geometry" />
        </mxCell>
        <mxCell id="_ni2BkANyReUADWvfRKk-6" value="&lt;font style=&quot;font-size: 10px;&quot;&gt;gold.dim_customers&lt;/font&gt;" style="rounded=1;whiteSpace=wrap;html=1;fillColor=none;strokeColor=#d6b656;" vertex="1" parent="1">
          <mxGeometry x="940" y="425" width="110" height="25" as="geometry" />
        </mxCell>
        <mxCell id="_ni2BkANyReUADWvfRKk-7" value="&lt;font style=&quot;font-size: 10px;&quot;&gt;gold.fact_sales&lt;/font&gt;" style="rounded=1;whiteSpace=wrap;html=1;fillColor=none;strokeColor=#d6b656;" vertex="1" parent="1">
          <mxGeometry x="940" y="465" width="110" height="25" as="geometry" />
        </mxCell>
        <mxCell id="_ni2BkANyReUADWvfRKk-8" value="&lt;font style=&quot;font-size: 10px;&quot;&gt;gold.dim_products&lt;/font&gt;" style="rounded=1;whiteSpace=wrap;html=1;fillColor=none;strokeColor=#d6b656;" vertex="1" parent="1">
          <mxGeometry x="940" y="505" width="110" height="25" as="geometry" />
        </mxCell>
      </root>
    </mxGraphModel>
  </diagram>
</mxfile>
